# xmcd CD database file
#
# Track frame offsets:
#	150
#	20127
#	42890
#	68535
#	95490
#	111115
#	136332
#	149735
#
# Disc length: 2556 seconds
#
# Revision: 8
# Processed by: cddbd v1.5.2PL0 Copyright (c) Steve Scherf et al.
# Submitted via: CDex 1.70beta2
#
DISCID=7109fa08
DTITLE=Leonard Cohen - Death Of Ladies' Man
DYEAR=1977
DGENRE=Blues
TTITLE0=True Love Leaves No Traces
TTITLE1=Iodine
TTITLE2=Paper-Thin Hotel
TTITLE3=Memories
TTITLE4=I Left A Woman Waiting
TTITLE5=Don't Go Home With You Hard-On
TTITLE6=Fingerprints
TTITLE7=Death Of Ladies' Man
EXTD=Produced by Phil Spector.\n\nLeonard Cohen, describing the process of making\nthis recording:  "It was a disaster".\n\nSpector locked him out of the final process, worked very\nhard at drowning out Leonard's vocals, added his own\nwriting credit.\n\
EXTD=n YEAR: 1977
EXTT0=
EXTT1=
EXTT2=
EXTT3=
EXTT4=
EXTT5=
EXTT6=
EXTT7=
PLAYORDER=
